<?xml version="1.0" encoding="UTF-8" standalone="no"?>
<!DOCTYPE svg PUBLIC "-//W3C//DTD SVG 1.1//EN" "http://www.w3.org/Graphics/SVG/1.1/DTD/svg11.dtd">
<svg version="1.1" xmlns="http://www.w3.org/2000/svg" xmlns:xlink="http://www.w3.org/1999/xlink" preserveAspectRatio="xMidYMid meet" viewBox="119.57692307692305 119.57692307692312 245.2980769230769 210.34615384615395" width="241.3" height="206.35">
	<defs>
		<path class="circle" d="M308.13 253.37C308.13 293.96 275.16 326.92 234.57 326.92C193.97 326.92 161.01 293.96 161.01 253.37C161.01 212.77 193.97 179.81 234.57 179.81C275.16 179.81 308.13 212.77 308.13 253.37Z" id="a3JWk2wHEM">
		</path>
		<path class="circle" d="M267.69 194.13C267.69 234.73 234.73 267.69 194.13 267.69C153.54 267.69 120.58 234.73 120.58 194.13C120.58 153.54 153.54 120.58 194.13 120.58C234.73 120.58 267.69 153.54 267.69 194.13Z" id="bgLmoN5Lj">
		</path>
		<path class="circle" d="M361.87 194.13C361.87 234.73 328.91 267.69 288.32 267.69C247.72 267.69 214.76 234.73 214.76 194.13C214.76 153.54 247.72 120.58 288.32 120.58C328.91 120.58 361.87 153.54 361.87 194.13Z" id="b8pWyu3r6k">
		</path>
	</defs>
	<g>
		<g>
			<use xlink:href="#a3JWk2wHEM" opacity="1" fill="#01d301" fill-opacity="1">
			</use>
		</g>
		<g>
			<use xlink:href="#bgLmoN5Lj" opacity="1" fill="#d33101" fill-opacity="1">
			</use>
		</g>
		<g>
			<use xlink:href="#b8pWyu3r6k" opacity="1" fill="#010dd3" fill-opacity="1">
			</use>
		</g>
	</g>
</svg>
